<svg id="Capa_1" enable-background="new 0 0 512 512" height="512" viewBox="0 0 512 512" width="512" xmlns="http://www.w3.org/2000/svg"><path d="m236.406 213.429-19.153-11.971-39.986 16.992-16.929 43.545 18.339 40.645 42.686 10.119-20.803-55.651z" fill="#a0a0a0"/><path d="m236.406 213.429-14.152-8.846-39.73 48.411 20.738 55.474 18.101 4.291-20.804-55.651z" fill="#8e8e8e"/><path d="m448.048 74.837-95.954-50.902h-49.23l95.955 50.902 56.436 121.508-17.737 124.792-72.561 103.446-135.448 57.47 65.252 6.012 114.722-46.269 77.265-120.659 17.737-124.792z" fill="#a0a0a0"/><path d="m448.048 74.837-23.931-12.695 62.333 134.203-17.738 124.792-83.544 130.466 24.315-9.807 77.265-120.659 17.737-124.792z" fill="#8e8e8e"/><path d="m398.819 74.837-95.955-50.902h-119.538l-124.739 70.606-51.072 118.224 13.354 145.772 94.349 98.324 114.292 25.192 135.447-57.47 72.561-103.446 17.737-124.792zm-130.975 206.934-46.481 30.987-42.686-10.118-18.339-40.646 16.93-43.544 39.986-16.992 50.591 31.619v48.694z" fill="#e0e0e0"/><path d="m398.819 74.837-23.932-12.695 62.333 134.203-17.737 124.792-80.204 114.341 25.678-10.895 72.561-103.446 17.737-124.792z" fill="#ccc"/><path d="m511.3 193.18-56.436-121.508c-.69-1.486-1.846-2.705-3.294-3.474l-95.955-50.901c-1.084-.576-2.294-.877-3.521-.877h-49.23-119.538c-1.298 0-2.572.336-3.702.975l-124.738 70.606c-1.425.807-2.548 2.057-3.197 3.56l-51.073 118.224c-.499 1.154-.7 2.415-.585 3.666l4.569 49.884c.378 4.131 4.186 7.241 8.309 6.782 4.015-.447 7.027-4.126 6.658-8.154l-4.394-47.976 49.311-114.15 120.821-68.387h115.689l92.073 48.842 21.391 46.055c1.748 3.764 6.216 5.403 9.98 3.65 3.764-1.747 5.398-6.216 3.65-9.98l-22.455-48.344c-.69-1.486-1.846-2.705-3.293-3.473l-69.275-36.75h17.158l92.073 48.842 54.434 117.2-17.193 120.969-33.697 52.619c-2.035 3.179-1.341 7.515 1.596 9.891 3.437 2.78 8.679 1.935 11.062-1.785l34.577-53.996c.58-.907.96-1.928 1.112-2.995l17.737-124.791c.206-1.439-.011-2.907-.624-4.224z"/><path d="m176.944 309.953 42.686 10.117c2.012.478 4.181.087 5.901-1.06l46.481-30.987c2.091-1.393 3.346-3.74 3.346-6.252v-48.694c0-2.591-1.335-4.999-3.532-6.373l-50.592-31.619c-2.079-1.299-4.661-1.504-6.922-.543l-39.985 16.992c-1.865.793-3.331 2.304-4.064 4.193l-16.93 43.544c-.731 1.88-.675 3.975.155 5.814l18.34 40.647c.958 2.124 2.848 3.684 5.116 4.221zm83.385-72.71v40.507l-35.247 23.497-15.969-42.717 28.911-35.228zm-77.207-13.116 33.467-14.222 8.584 5.365-30.423 37.071c-1.699 2.07-2.167 4.889-1.23 7.398l15.872 42.458-25.386-6.017-15.522-34.403z"/><path d="m371.108 428.898 72.562-103.446c.68-.969 1.121-2.085 1.289-3.257l17.737-124.791c.204-1.438-.013-2.905-.625-4.223l-21.3-45.86c-1.747-3.763-6.214-5.399-9.98-3.65-3.764 1.748-5.398 6.216-3.65 9.98l20.362 43.842-17.17 120.804-70.291 100.209-131.257 55.692-109.723-24.185-90.948-94.781-5.814-63.436c-.379-4.133-4.032-7.176-8.169-6.797-4.133.379-7.176 4.036-6.797 8.169l6.052 66.055c.156 1.696.883 3.289 2.062 4.517l94.348 98.324c1.028 1.072 2.352 1.816 3.804 2.136l114.293 25.192c.294.065.591.108.888.137.014.002.026.007.04.008l65.251 6.013c1.187.106 2.395-.068 3.501-.514l114.722-46.269c1.446-.584 2.676-1.604 3.518-2.917l26.502-41.386c2.238-3.495 1.219-8.143-2.276-10.382-3.496-2.238-8.144-1.219-10.382 2.276l-25.208 39.367-110.81 44.692-33.709-3.107 107.963-45.808c1.294-.551 2.408-1.452 3.215-2.604z"/></svg>